<svg t="1727105258988" class="icon" viewBox="0 0 1024 1024" version="1.1" xmlns="http://www.w3.org/2000/svg" p-id="28168" width="200" height="200"><path d="M511.999716 511.999716m-511.999716 0a511.999716 511.999716 0 1 0 1023.999431 0 511.999716 511.999716 0 1 0-1023.999431 0Z" fill="#9595CA" p-id="28169"></path><path d="M511.999716 511.999716a153.599915 153.599915 0 1 1 0-307.19983A153.599915 153.599915 0 0 1 511.999716 511.999716zM179.1999 901.119499c7.623107-199.367 127.288818-312.319826 332.430038-312.319826 205.254997 0 324.920708 113.066604 332.430038 312.604271l-9.045329 7.850662A509.866383 509.866383 0 0 1 511.999716 1023.999431a510.008606 510.008606 0 0 1-332.799816-122.879932z" fill="#FFFFFF" p-id="28170"></path></svg>